<svg xmlns="http://www.w3.org/2000/svg" xml:space="preserve" width="259" height="259">
  <path fill="#FFF" d="M0 0h259v259H0z"/>
  <path d="M0 0h100v100H0z" style="fill:#000" transform="matrix(.07 0 0 .07 70 14)"/>
  <path d="M0 0h100v100H0z" style="fill:#000" transform="matrix(.07 0 0 .07 77 14)"/>
  <path d="M0 0h100v100H0z" style="fill:#000" transform="matrix(.07 0 0 .07 84 14)"/>
  <path d="M0 0h100v100H0z" style="fill:#000" transform="matrix(.07 0 0 .07 91 14)"/>
  <path d="M0 0h100v100H0z" style="fill:#000" transform="matrix(.07 0 0 .07 98 14)"/>
  <path d="M0 0h100v100H0z" style="fill:#000" transform="matrix(.07 0 0 .07 105 14)"/>
  <path d="M0 0h100v100H0z" style="fill:#000" transform="matrix(.07 0 0 .07 112 14)"/>
  <path d="M0 0h100v100H0z" style="fill:#000" transform="matrix(.07 0 0 .07 126 14)"/>
  <path d="M0 0h100v100H0z" style="fill:#000" transform="matrix(.07 0 0 .07 133 14)"/>
  <path d="M0 0h100v100H0z" style="fill:#000" transform="matrix(.07 0 0 .07 140 14)"/>
  <path d="M0 0h100v100H0z" style="fill:#000" transform="matrix(.07 0 0 .07 147 14)"/>
  <path d="M0 0h100v100H0z" style="fill:#000" transform="matrix(.07 0 0 .07 154 14)"/>
  <path d="M0 0h100v100H0z" style="fill:#000" transform="matrix(.07 0 0 .07 175 14)"/>
  <path d="M0 0h100v100H0z" style="fill:#000" transform="matrix(.07 0 0 .07 70 21)"/>
  <path d="M0 0h100v100H0z" style="fill:#000" transform="matrix(.07 0 0 .07 84 21)"/>
  <path d="M0 0h100v100H0z" style="fill:#000" transform="matrix(.07 0 0 .07 91 21)"/>
  <path d="M0 0h100v100H0z" style="fill:#000" transform="matrix(.07 0 0 .07 98 21)"/>
  <path d="M0 0h100v100H0z" style="fill:#000" transform="matrix(.07 0 0 .07 105 21)"/>
  <path d="M0 0h100v100H0z" style="fill:#000" transform="matrix(.07 0 0 .07 140 21)"/>
  <path d="M0 0h100v100H0z" style="fill:#000" transform="matrix(.07 0 0 .07 168 21)"/>
  <path d="M0 0h100v100H0z" style="fill:#000" transform="matrix(.07 0 0 .07 175 21)"/>
  <path d="M0 0h100v100H0z" style="fill:#000" transform="matrix(.07 0 0 .07 182 21)"/>
  <path d="M0 0h100v100H0z" style="fill:#000" transform="matrix(.07 0 0 .07 91 28)"/>
  <path d="M0 0h100v100H0z" style="fill:#000" transform="matrix(.07 0 0 .07 98 28)"/>
  <path d="M0 0h100v100H0z" style="fill:#000" transform="matrix(.07 0 0 .07 126 28)"/>
  <path d="M0 0h100v100H0z" style="fill:#000" transform="matrix(.07 0 0 .07 133 28)"/>
  <path d="M0 0h100v100H0z" style="fill:#000" transform="matrix(.07 0 0 .07 182 28)"/>
  <path d="M0 0h100v100H0z" style="fill:#000" transform="matrix(.07 0 0 .07 70 35)"/>
  <path d="M0 0h100v100H0z" style="fill:#000" transform="matrix(.07 0 0 .07 77 35)"/>
  <path d="M0 0h100v100H0z" style="fill:#000" transform="matrix(.07 0 0 .07 84 35)"/>
  <path d="M0 0h100v100H0z" style="fill:#000" transform="matrix(.07 0 0 .07 91 35)"/>
  <path d="M0 0h100v100H0z" style="fill:#000" transform="matrix(.07 0 0 .07 98 35)"/>
  <path d="M0 0h100v100H0z" style="fill:#000" transform="matrix(.07 0 0 .07 112 35)"/>
  <path d="M0 0h100v100H0z" style="fill:#000" transform="matrix(.07 0 0 .07 119 35)"/>
  <path d="M0 0h100v100H0z" style="fill:#000" transform="matrix(.07 0 0 .07 126 35)"/>
  <path d="M0 0h100v100H0z" style="fill:#000" transform="matrix(.07 0 0 .07 147 35)"/>
  <path d="M0 0h100v100H0z" style="fill:#000" transform="matrix(.07 0 0 .07 154 35)"/>
  <path d="M0 0h100v100H0z" style="fill:#000" transform="matrix(.07 0 0 .07 168 35)"/>
  <path d="M0 0h100v100H0z" style="fill:#000" transform="matrix(.07 0 0 .07 182 35)"/>
  <path d="M0 0h100v100H0z" style="fill:#000" transform="matrix(.07 0 0 .07 77 42)"/>
  <path d="M0 0h100v100H0z" style="fill:#000" transform="matrix(.07 0 0 .07 84 42)"/>
  <path d="M0 0h100v100H0z" style="fill:#000" transform="matrix(.07 0 0 .07 98 42)"/>
  <path d="M0 0h100v100H0z" style="fill:#000" transform="matrix(.07 0 0 .07 105 42)"/>
  <path d="M0 0h100v100H0z" style="fill:#000" transform="matrix(.07 0 0 .07 112 42)"/>
  <path d="M0 0h100v100H0z" style="fill:#000" transform="matrix(.07 0 0 .07 154 42)"/>
  <path d="M0 0h100v100H0z" style="fill:#000" transform="matrix(.07 0 0 .07 182 42)"/>
  <path d="M0 0h100v100H0z" style="fill:#000" transform="matrix(.07 0 0 .07 77 49)"/>
  <path d="M0 0h100v100H0z" style="fill:#000" transform="matrix(.07 0 0 .07 84 49)"/>
  <path d="M0 0h100v100H0z" style="fill:#000" transform="matrix(.07 0 0 .07 105 49)"/>
  <path d="M0 0h100v100H0z" style="fill:#000" transform="matrix(.07 0 0 .07 133 49)"/>
  <path d="M0 0h100v100H0z" style="fill:#000" transform="matrix(.07 0 0 .07 140 49)"/>
  <path d="M0 0h100v100H0z" style="fill:#000" transform="matrix(.07 0 0 .07 147 49)"/>
  <path d="M0 0h100v100H0z" style="fill:#000" transform="matrix(.07 0 0 .07 154 49)"/>
  <path d="M0 0h100v100H0z" style="fill:#000" transform="matrix(.07 0 0 .07 161 49)"/>
  <path d="M0 0h100v100H0z" style="fill:#000" transform="matrix(.07 0 0 .07 168 49)"/>
  <path d="M0 0h100v100H0z" style="fill:#000" transform="matrix(.07 0 0 .07 182 49)"/>
  <path d="M0 0h100v100H0z" style="fill:#000" transform="matrix(.07 0 0 .07 70 56)"/>
  <path d="M0 0h100v100H0z" style="fill:#000" transform="matrix(.07 0 0 .07 84 56)"/>
  <path d="M0 0h100v100H0z" style="fill:#000" transform="matrix(.07 0 0 .07 98 56)"/>
  <path d="M0 0h100v100H0z" style="fill:#000" transform="matrix(.07 0 0 .07 112 56)"/>
  <path d="M0 0h100v100H0z" style="fill:#000" transform="matrix(.07 0 0 .07 126 56)"/>
  <path d="M0 0h100v100H0z" style="fill:#000" transform="matrix(.07 0 0 .07 140 56)"/>
  <path d="M0 0h100v100H0z" style="fill:#000" transform="matrix(.07 0 0 .07 154 56)"/>
  <path d="M0 0h100v100H0z" style="fill:#000" transform="matrix(.07 0 0 .07 168 56)"/>
  <path d="M0 0h100v100H0z" style="fill:#000" transform="matrix(.07 0 0 .07 182 56)"/>
  <path d="M0 0h100v100H0z" style="fill:#000" transform="matrix(.07 0 0 .07 70 63)"/>
  <path d="M0 0h100v100H0z" style="fill:#000" transform="matrix(.07 0 0 .07 77 63)"/>
  <path d="M0 0h100v100H0z" style="fill:#000" transform="matrix(.07 0 0 .07 133 63)"/>
  <path d="M0 0h100v100H0z" style="fill:#000" transform="matrix(.07 0 0 .07 140 63)"/>
  <path d="M0 0h100v100H0z" style="fill:#000" transform="matrix(.07 0 0 .07 154 63)"/>
  <path d="M0 0h100v100H0z" style="fill:#000" transform="matrix(.07 0 0 .07 182 63)"/>
  <path d="M0 0h100v100H0z" style="fill:#000" transform="matrix(.07 0 0 .07 14 70)"/>
  <path d="M0 0h100v100H0z" style="fill:#000" transform="matrix(.07 0 0 .07 28 70)"/>
  <path d="M0 0h100v100H0z" style="fill:#000" transform="matrix(.07 0 0 .07 35 70)"/>
  <path d="M0 0h100v100H0z" style="fill:#000" transform="matrix(.07 0 0 .07 49 70)"/>
  <path d="M0 0h100v100H0z" style="fill:#000" transform="matrix(.07 0 0 .07 56 70)"/>
  <path d="M0 0h100v100H0z" style="fill:#000" transform="matrix(.07 0 0 .07 63 70)"/>
  <path d="M0 0h100v100H0z" style="fill:#000" transform="matrix(.07 0 0 .07 77 70)"/>
  <path d="M0 0h100v100H0z" style="fill:#000" transform="matrix(.07 0 0 .07 84 70)"/>
  <path d="M0 0h100v100H0z" style="fill:#000" transform="matrix(.07 0 0 .07 112 70)"/>
  <path d="M0 0h100v100H0z" style="fill:#000" transform="matrix(.07 0 0 .07 133 70)"/>
  <path d="M0 0h100v100H0z" style="fill:#000" transform="matrix(.07 0 0 .07 140 70)"/>
  <path d="M0 0h100v100H0z" style="fill:#000" transform="matrix(.07 0 0 .07 147 70)"/>
  <path d="M0 0h100v100H0z" style="fill:#000" transform="matrix(.07 0 0 .07 161 70)"/>
  <path d="M0 0h100v100H0z" style="fill:#000" transform="matrix(.07 0 0 .07 168 70)"/>
  <path d="M0 0h100v100H0z" style="fill:#000" transform="matrix(.07 0 0 .07 175 70)"/>
  <path d="M0 0h100v100H0z" style="fill:#000" transform="matrix(.07 0 0 .07 182 70)"/>
  <path d="M0 0h100v100H0z" style="fill:#000" transform="matrix(.07 0 0 .07 196 70)"/>
  <path d="M0 0h100v100H0z" style="fill:#000" transform="matrix(.07 0 0 .07 217 70)"/>
  <path d="M0 0h100v100H0z" style="fill:#000" transform="matrix(.07 0 0 .07 231 70)"/>
  <path d="M0 0h100v100H0z" style="fill:#000" transform="matrix(.07 0 0 .07 238 70)"/>
  <path d="M0 0h100v100H0z" style="fill:#000" transform="matrix(.07 0 0 .07 42 77)"/>
  <path d="M0 0h100v100H0z" style="fill:#000" transform="matrix(.07 0 0 .07 63 77)"/>
  <path d="M0 0h100v100H0z" style="fill:#000" transform="matrix(.07 0 0 .07 70 77)"/>
  <path d="M0 0h100v100H0z" style="fill:#000" transform="matrix(.07 0 0 .07 77 77)"/>
  <path d="M0 0h100v100H0z" style="fill:#000" transform="matrix(.07 0 0 .07 84 77)"/>
  <path d="M0 0h100v100H0z" style="fill:#000" transform="matrix(.07 0 0 .07 98 77)"/>
  <path d="M0 0h100v100H0z" style="fill:#000" transform="matrix(.07 0 0 .07 112 77)"/>
  <path d="M0 0h100v100H0z" style="fill:#000" transform="matrix(.07 0 0 .07 126 77)"/>
  <path d="M0 0h100v100H0z" style="fill:#000" transform="matrix(.07 0 0 .07 140 77)"/>
  <path d="M0 0h100v100H0z" style="fill:#000" transform="matrix(.07 0 0 .07 147 77)"/>
  <path d="M0 0h100v100H0z" style="fill:#000" transform="matrix(.07 0 0 .07 154 77)"/>
  <path d="M0 0h100v100H0z" style="fill:#000" transform="matrix(.07 0 0 .07 161 77)"/>
  <path d="M0 0h100v100H0z" style="fill:#000" transform="matrix(.07 0 0 .07 175 77)"/>
  <path d="M0 0h100v100H0z" style="fill:#000" transform="matrix(.07 0 0 .07 196 77)"/>
  <path d="M0 0h100v100H0z" style="fill:#000" transform="matrix(.07 0 0 .07 203 77)"/>
  <path d="M0 0h100v100H0z" style="fill:#000" transform="matrix(.07 0 0 .07 217 77)"/>
  <path d="M0 0h100v100H0z" style="fill:#000" transform="matrix(.07 0 0 .07 224 77)"/>
  <path d="M0 0h100v100H0z" style="fill:#000" transform="matrix(.07 0 0 .07 238 77)"/>
  <path d="M0 0h100v100H0z" style="fill:#000" transform="matrix(.07 0 0 .07 21 84)"/>
  <path d="M0 0h100v100H0z" style="fill:#000" transform="matrix(.07 0 0 .07 28 84)"/>
  <path d="M0 0h100v100H0z" style="fill:#000" transform="matrix(.07 0 0 .07 35 84)"/>
  <path d="M0 0h100v100H0z" style="fill:#000" transform="matrix(.07 0 0 .07 49 84)"/>
  <path d="M0 0h100v100H0z" style="fill:#000" transform="matrix(.07 0 0 .07 56 84)"/>
  <path d="M0 0h100v100H0z" style="fill:#000" transform="matrix(.07 0 0 .07 63 84)"/>
  <path d="M0 0h100v100H0z" style="fill:#000" transform="matrix(.07 0 0 .07 70 84)"/>
  <path d="M0 0h100v100H0z" style="fill:#000" transform="matrix(.07 0 0 .07 77 84)"/>
  <path d="M0 0h100v100H0z" style="fill:#000" transform="matrix(.07 0 0 .07 84 84)"/>
  <path d="M0 0h100v100H0z" style="fill:#000" transform="matrix(.07 0 0 .07 91 84)"/>
  <path d="M0 0h100v100H0z" style="fill:#000" transform="matrix(.07 0 0 .07 98 84)"/>
  <path d="M0 0h100v100H0z" style="fill:#000" transform="matrix(.07 0 0 .07 112 84)"/>
  <path d="M0 0h100v100H0z" style="fill:#000" transform="matrix(.07 0 0 .07 126 84)"/>
  <path d="M0 0h100v100H0z" style="fill:#000" transform="matrix(.07 0 0 .07 133 84)"/>
  <path d="M0 0h100v100H0z" style="fill:#000" transform="matrix(.07 0 0 .07 168 84)"/>
  <path d="M0 0h100v100H0z" style="fill:#000" transform="matrix(.07 0 0 .07 175 84)"/>
  <path d="M0 0h100v100H0z" style="fill:#000" transform="matrix(.07 0 0 .07 189 84)"/>
  <path d="M0 0h100v100H0z" style="fill:#000" transform="matrix(.07 0 0 .07 203 84)"/>
  <path d="M0 0h100v100H0z" style="fill:#000" transform="matrix(.07 0 0 .07 210 84)"/>
  <path d="M0 0h100v100H0z" style="fill:#000" transform="matrix(.07 0 0 .07 217 84)"/>
  <path d="M0 0h100v100H0z" style="fill:#000" transform="matrix(.07 0 0 .07 231 84)"/>
  <path d="M0 0h100v100H0z" style="fill:#000" transform="matrix(.07 0 0 .07 238 84)"/>
  <path d="M0 0h100v100H0z" style="fill:#000" transform="matrix(.07 0 0 .07 14 91)"/>
  <path d="M0 0h100v100H0z" style="fill:#000" transform="matrix(.07 0 0 .07 35 91)"/>
  <path d="M0 0h100v100H0z" style="fill:#000" transform="matrix(.07 0 0 .07 49 91)"/>
  <path d="M0 0h100v100H0z" style="fill:#000" transform="matrix(.07 0 0 .07 70 91)"/>
  <path d="M0 0h100v100H0z" style="fill:#000" transform="matrix(.07 0 0 .07 77 91)"/>
  <path d="M0 0h100v100H0z" style="fill:#000" transform="matrix(.07 0 0 .07 91 91)"/>
  <path d="M0 0h100v100H0z" style="fill:#000" transform="matrix(.07 0 0 .07 98 91)"/>
  <path d="M0 0h100v100H0z" style="fill:#000" transform="matrix(.07 0 0 .07 105 91)"/>
  <path d="M0 0h100v100H0z" style="fill:#000" transform="matrix(.07 0 0 .07 112 91)"/>
  <path d="M0 0h100v100H0z" style="fill:#000" transform="matrix(.07 0 0 .07 119 91)"/>
  <path d="M0 0h100v100H0z" style="fill:#000" transform="matrix(.07 0 0 .07 140 91)"/>
  <path d="M0 0h100v100H0z" style="fill:#000" transform="matrix(.07 0 0 .07 147 91)"/>
  <path d="M0 0h100v100H0z" style="fill:#000" transform="matrix(.07 0 0 .07 154 91)"/>
  <path d="M0 0h100v100H0z" style="fill:#000" transform="matrix(.07 0 0 .07 203 91)"/>
  <path d="M0 0h100v100H0z" style="fill:#000" transform="matrix(.07 0 0 .07 217 91)"/>
  <path d="M0 0h100v100H0z" style="fill:#000" transform="matrix(.07 0 0 .07 238 91)"/>
  <path d="M0 0h100v100H0z" style="fill:#000" transform="matrix(.07 0 0 .07 21 98)"/>
  <path d="M0 0h100v100H0z" style="fill:#000" transform="matrix(.07 0 0 .07 35 98)"/>
  <path d="M0 0h100v100H0z" style="fill:#000" transform="matrix(.07 0 0 .07 42 98)"/>
  <path d="M0 0h100v100H0z" style="fill:#000" transform="matrix(.07 0 0 .07 56 98)"/>
  <path d="M0 0h100v100H0z" style="fill:#000" transform="matrix(.07 0 0 .07 70 98)"/>
  <path d="M0 0h100v100H0z" style="fill:#000" transform="matrix(.07 0 0 .07 77 98)"/>
  <path d="M0 0h100v100H0z" style="fill:#000" transform="matrix(.07 0 0 .07 91 98)"/>
  <path d="M0 0h100v100H0z" style="fill:#000" transform="matrix(.07 0 0 .07 98 98)"/>
  <path d="M0 0h100v100H0z" style="fill:#000" transform="matrix(.07 0 0 .07 140 98)"/>
  <path d="M0 0h100v100H0z" style="fill:#000" transform="matrix(.07 0 0 .07 168 98)"/>
  <path d="M0 0h100v100H0z" style="fill:#000" transform="matrix(.07 0 0 .07 175 98)"/>
  <path d="M0 0h100v100H0z" style="fill:#000" transform="matrix(.07 0 0 .07 182 98)"/>
  <path d="M0 0h100v100H0z" style="fill:#000" transform="matrix(.07 0 0 .07 189 98)"/>
  <path d="M0 0h100v100H0z" style="fill:#000" transform="matrix(.07 0 0 .07 203 98)"/>
  <path d="M0 0h100v100H0z" style="fill:#000" transform="matrix(.07 0 0 .07 210 98)"/>
  <path d="M0 0h100v100H0z" style="fill:#000" transform="matrix(.07 0 0 .07 217 98)"/>
  <path d="M0 0h100v100H0z" style="fill:#000" transform="matrix(.07 0 0 .07 231 98)"/>
  <path d="M0 0h100v100H0z" style="fill:#000" transform="matrix(.07 0 0 .07 238 98)"/>
  <path d="M0 0h100v100H0z" style="fill:#000" transform="matrix(.07 0 0 .07 14 105)"/>
  <path d="M0 0h100v100H0z" style="fill:#000" transform="matrix(.07 0 0 .07 35 105)"/>
  <path d="M0 0h100v100H0z" style="fill:#000" transform="matrix(.07 0 0 .07 49 105)"/>
  <path d="M0 0h100v100H0z" style="fill:#000" transform="matrix(.07 0 0 .07 77 105)"/>
  <path d="M0 0h100v100H0z" style="fill:#000" transform="matrix(.07 0 0 .07 84 105)"/>
  <path d="M0 0h100v100H0z" style="fill:#000" transform="matrix(.07 0 0 .07 105 105)"/>
  <path d="M0 0h100v100H0z" style="fill:#000" transform="matrix(.07 0 0 .07 126 105)"/>
  <path d="M0 0h100v100H0z" style="fill:#000" transform="matrix(.07 0 0 .07 140 105)"/>
  <path d="M0 0h100v100H0z" style="fill:#000" transform="matrix(.07 0 0 .07 161 105)"/>
  <path d="M0 0h100v100H0z" style="fill:#000" transform="matrix(.07 0 0 .07 168 105)"/>
  <path d="M0 0h100v100H0z" style="fill:#000" transform="matrix(.07 0 0 .07 182 105)"/>
  <path d="M0 0h100v100H0z" style="fill:#000" transform="matrix(.07 0 0 .07 224 105)"/>
  <path d="M0 0h100v100H0z" style="fill:#000" transform="matrix(.07 0 0 .07 231 105)"/>
  <path d="M0 0h100v100H0z" style="fill:#000" transform="matrix(.07 0 0 .07 14 112)"/>
  <path d="M0 0h100v100H0z" style="fill:#000" transform="matrix(.07 0 0 .07 21 112)"/>
  <path d="M0 0h100v100H0z" style="fill:#000" transform="matrix(.07 0 0 .07 35 112)"/>
  <path d="M0 0h100v100H0z" style="fill:#000" transform="matrix(.07 0 0 .07 42 112)"/>
  <path d="M0 0h100v100H0z" style="fill:#000" transform="matrix(.07 0 0 .07 49 112)"/>
  <path d="M0 0h100v100H0z" style="fill:#000" transform="matrix(.07 0 0 .07 56 112)"/>
  <path d="M0 0h100v100H0z" style="fill:#000" transform="matrix(.07 0 0 .07 63 112)"/>
  <path d="M0 0h100v100H0z" style="fill:#000" transform="matrix(.07 0 0 .07 77 112)"/>
  <path d="M0 0h100v100H0z" style="fill:#000" transform="matrix(.07 0 0 .07 84 112)"/>
  <path d="M0 0h100v100H0z" style="fill:#000" transform="matrix(.07 0 0 .07 119 112)"/>
  <path d="M0 0h100v100H0z" style="fill:#000" transform="matrix(.07 0 0 .07 126 112)"/>
  <path d="M0 0h100v100H0z" style="fill:#000" transform="matrix(.07 0 0 .07 161 112)"/>
  <path d="M0 0h100v100H0z" style="fill:#000" transform="matrix(.07 0 0 .07 196 112)"/>
  <path d="M0 0h100v100H0z" style="fill:#000" transform="matrix(.07 0 0 .07 203 112)"/>
  <path d="M0 0h100v100H0z" style="fill:#000" transform="matrix(.07 0 0 .07 210 112)"/>
  <path d="M0 0h100v100H0z" style="fill:#000" transform="matrix(.07 0 0 .07 224 112)"/>
  <path d="M0 0h100v100H0z" style="fill:#000" transform="matrix(.07 0 0 .07 35 119)"/>
  <path d="M0 0h100v100H0z" style="fill:#000" transform="matrix(.07 0 0 .07 70 119)"/>
  <path d="M0 0h100v100H0z" style="fill:#000" transform="matrix(.07 0 0 .07 77 119)"/>
  <path d="M0 0h100v100H0z" style="fill:#000" transform="matrix(.07 0 0 .07 98 119)"/>
  <path d="M0 0h100v100H0z" style="fill:#000" transform="matrix(.07 0 0 .07 105 119)"/>
  <path d="M0 0h100v100H0z" style="fill:#000" transform="matrix(.07 0 0 .07 126 119)"/>
  <path d="M0 0h100v100H0z" style="fill:#000" transform="matrix(.07 0 0 .07 140 119)"/>
  <path d="M0 0h100v100H0z" style="fill:#000" transform="matrix(.07 0 0 .07 147 119)"/>
  <path d="M0 0h100v100H0z" style="fill:#000" transform="matrix(.07 0 0 .07 154 119)"/>
  <path d="M0 0h100v100H0z" style="fill:#000" transform="matrix(.07 0 0 .07 161 119)"/>
  <path d="M0 0h100v100H0z" style="fill:#000" transform="matrix(.07 0 0 .07 182 119)"/>
  <path d="M0 0h100v100H0z" style="fill:#000" transform="matrix(.07 0 0 .07 189 119)"/>
  <path d="M0 0h100v100H0z" style="fill:#000" transform="matrix(.07 0 0 .07 196 119)"/>
  <path d="M0 0h100v100H0z" style="fill:#000" transform="matrix(.07 0 0 .07 224 119)"/>
  <path d="M0 0h100v100H0z" style="fill:#000" transform="matrix(.07 0 0 .07 28 126)"/>
  <path d="M0 0h100v100H0z" style="fill:#000" transform="matrix(.07 0 0 .07 42 126)"/>
  <path d="M0 0h100v100H0z" style="fill:#000" transform="matrix(.07 0 0 .07 49 126)"/>
  <path d="M0 0h100v100H0z" style="fill:#000" transform="matrix(.07 0 0 .07 56 126)"/>
  <path d="M0 0h100v100H0z" style="fill:#000" transform="matrix(.07 0 0 .07 63 126)"/>
  <path d="M0 0h100v100H0z" style="fill:#000" transform="matrix(.07 0 0 .07 91 126)"/>
  <path d="M0 0h100v100H0z" style="fill:#000" transform="matrix(.07 0 0 .07 98 126)"/>
  <path d="M0 0h100v100H0z" style="fill:#000" transform="matrix(.07 0 0 .07 105 126)"/>
  <path d="M0 0h100v100H0z" style="fill:#000" transform="matrix(.07 0 0 .07 119 126)"/>
  <path d="M0 0h100v100H0z" style="fill:#000" transform="matrix(.07 0 0 .07 140 126)"/>
  <path d="M0 0h100v100H0z" style="fill:#000" transform="matrix(.07 0 0 .07 147 126)"/>
  <path d="M0 0h100v100H0z" style="fill:#000" transform="matrix(.07 0 0 .07 154 126)"/>
  <path d="M0 0h100v100H0z" style="fill:#000" transform="matrix(.07 0 0 .07 161 126)"/>
  <path d="M0 0h100v100H0z" style="fill:#000" transform="matrix(.07 0 0 .07 168 126)"/>
  <path d="M0 0h100v100H0z" style="fill:#000" transform="matrix(.07 0 0 .07 189 126)"/>
  <path d="M0 0h100v100H0z" style="fill:#000" transform="matrix(.07 0 0 .07 196 126)"/>
  <path d="M0 0h100v100H0z" style="fill:#000" transform="matrix(.07 0 0 .07 210 126)"/>
  <path d="M0 0h100v100H0z" style="fill:#000" transform="matrix(.07 0 0 .07 217 126)"/>
  <path d="M0 0h100v100H0z" style="fill:#000" transform="matrix(.07 0 0 .07 224 126)"/>
  <path d="M0 0h100v100H0z" style="fill:#000" transform="matrix(.07 0 0 .07 21 133)"/>
  <path d="M0 0h100v100H0z" style="fill:#000" transform="matrix(.07 0 0 .07 35 133)"/>
  <path d="M0 0h100v100H0z" style="fill:#000" transform="matrix(.07 0 0 .07 63 133)"/>
  <path d="M0 0h100v100H0z" style="fill:#000" transform="matrix(.07 0 0 .07 77 133)"/>
  <path d="M0 0h100v100H0z" style="fill:#000" transform="matrix(.07 0 0 .07 91 133)"/>
  <path d="M0 0h100v100H0z" style="fill:#000" transform="matrix(.07 0 0 .07 98 133)"/>
  <path d="M0 0h100v100H0z" style="fill:#000" transform="matrix(.07 0 0 .07 105 133)"/>
  <path d="M0 0h100v100H0z" style="fill:#000" transform="matrix(.07 0 0 .07 112 133)"/>
  <path d="M0 0h100v100H0z" style="fill:#000" transform="matrix(.07 0 0 .07 119 133)"/>
  <path d="M0 0h100v100H0z" style="fill:#000" transform="matrix(.07 0 0 .07 126 133)"/>
  <path d="M0 0h100v100H0z" style="fill:#000" transform="matrix(.07 0 0 .07 133 133)"/>
  <path d="M0 0h100v100H0z" style="fill:#000" transform="matrix(.07 0 0 .07 154 133)"/>
  <path d="M0 0h100v100H0z" style="fill:#000" transform="matrix(.07 0 0 .07 168 133)"/>
  <path d="M0 0h100v100H0z" style="fill:#000" transform="matrix(.07 0 0 .07 175 133)"/>
  <path d="M0 0h100v100H0z" style="fill:#000" transform="matrix(.07 0 0 .07 182 133)"/>
  <path d="M0 0h100v100H0z" style="fill:#000" transform="matrix(.07 0 0 .07 189 133)"/>
  <path d="M0 0h100v100H0z" style="fill:#000" transform="matrix(.07 0 0 .07 196 133)"/>
  <path d="M0 0h100v100H0z" style="fill:#000" transform="matrix(.07 0 0 .07 210 133)"/>
  <path d="M0 0h100v100H0z" style="fill:#000" transform="matrix(.07 0 0 .07 217 133)"/>
  <path d="M0 0h100v100H0z" style="fill:#000" transform="matrix(.07 0 0 .07 231 133)"/>
  <path d="M0 0h100v100H0z" style="fill:#000" transform="matrix(.07 0 0 .07 238 133)"/>
  <path d="M0 0h100v100H0z" style="fill:#000" transform="matrix(.07 0 0 .07 28 140)"/>
  <path d="M0 0h100v100H0z" style="fill:#000" transform="matrix(.07 0 0 .07 42 140)"/>
  <path d="M0 0h100v100H0z" style="fill:#000" transform="matrix(.07 0 0 .07 49 140)"/>
  <path d="M0 0h100v100H0z" style="fill:#000" transform="matrix(.07 0 0 .07 56 140)"/>
  <path d="M0 0h100v100H0z" style="fill:#000" transform="matrix(.07 0 0 .07 70 140)"/>
  <path d="M0 0h100v100H0z" style="fill:#000" transform="matrix(.07 0 0 .07 98 140)"/>
  <path d="M0 0h100v100H0z" style="fill:#000" transform="matrix(.07 0 0 .07 112 140)"/>
  <path d="M0 0h100v100H0z" style="fill:#000" transform="matrix(.07 0 0 .07 119 140)"/>
  <path d="M0 0h100v100H0z" style="fill:#000" transform="matrix(.07 0 0 .07 126 140)"/>
  <path d="M0 0h100v100H0z" style="fill:#000" transform="matrix(.07 0 0 .07 133 140)"/>
  <path d="M0 0h100v100H0z" style="fill:#000" transform="matrix(.07 0 0 .07 154 140)"/>
  <path d="M0 0h100v100H0z" style="fill:#000" transform="matrix(.07 0 0 .07 168 140)"/>
  <path d="M0 0h100v100H0z" style="fill:#000" transform="matrix(.07 0 0 .07 182 140)"/>
  <path d="M0 0h100v100H0z" style="fill:#000" transform="matrix(.07 0 0 .07 189 140)"/>
  <path d="M0 0h100v100H0z" style="fill:#000" transform="matrix(.07 0 0 .07 196 140)"/>
  <path d="M0 0h100v100H0z" style="fill:#000" transform="matrix(.07 0 0 .07 203 140)"/>
  <path d="M0 0h100v100H0z" style="fill:#000" transform="matrix(.07 0 0 .07 210 140)"/>
  <path d="M0 0h100v100H0z" style="fill:#000" transform="matrix(.07 0 0 .07 224 140)"/>
  <path d="M0 0h100v100H0z" style="fill:#000" transform="matrix(.07 0 0 .07 231 140)"/>
  <path d="M0 0h100v100H0z" style="fill:#000" transform="matrix(.07 0 0 .07 14 147)"/>
  <path d="M0 0h100v100H0z" style="fill:#000" transform="matrix(.07 0 0 .07 42 147)"/>
  <path d="M0 0h100v100H0z" style="fill:#000" transform="matrix(.07 0 0 .07 49 147)"/>
  <path d="M0 0h100v100H0z" style="fill:#000" transform="matrix(.07 0 0 .07 63 147)"/>
  <path d="M0 0h100v100H0z" style="fill:#000" transform="matrix(.07 0 0 .07 70 147)"/>
  <path d="M0 0h100v100H0z" style="fill:#000" transform="matrix(.07 0 0 .07 77 147)"/>
  <path d="M0 0h100v100H0z" style="fill:#000" transform="matrix(.07 0 0 .07 91 147)"/>
  <path d="M0 0h100v100H0z" style="fill:#000" transform="matrix(.07 0 0 .07 98 147)"/>
  <path d="M0 0h100v100H0z" style="fill:#000" transform="matrix(.07 0 0 .07 112 147)"/>
  <path d="M0 0h100v100H0z" style="fill:#000" transform="matrix(.07 0 0 .07 119 147)"/>
  <path d="M0 0h100v100H0z" style="fill:#000" transform="matrix(.07 0 0 .07 147 147)"/>
  <path d="M0 0h100v100H0z" style="fill:#000" transform="matrix(.07 0 0 .07 168 147)"/>
  <path d="M0 0h100v100H0z" style="fill:#000" transform="matrix(.07 0 0 .07 175 147)"/>
  <path d="M0 0h100v100H0z" style="fill:#000" transform="matrix(.07 0 0 .07 182 147)"/>
  <path d="M0 0h100v100H0z" style="fill:#000" transform="matrix(.07 0 0 .07 189 147)"/>
  <path d="M0 0h100v100H0z" style="fill:#000" transform="matrix(.07 0 0 .07 196 147)"/>
  <path d="M0 0h100v100H0z" style="fill:#000" transform="matrix(.07 0 0 .07 210 147)"/>
  <path d="M0 0h100v100H0z" style="fill:#000" transform="matrix(.07 0 0 .07 238 147)"/>
  <path d="M0 0h100v100H0z" style="fill:#000" transform="matrix(.07 0 0 .07 28 154)"/>
  <path d="M0 0h100v100H0z" style="fill:#000" transform="matrix(.07 0 0 .07 49 154)"/>
  <path d="M0 0h100v100H0z" style="fill:#000" transform="matrix(.07 0 0 .07 56 154)"/>
  <path d="M0 0h100v100H0z" style="fill:#000" transform="matrix(.07 0 0 .07 63 154)"/>
  <path d="M0 0h100v100H0z" style="fill:#000" transform="matrix(.07 0 0 .07 70 154)"/>
  <path d="M0 0h100v100H0z" style="fill:#000" transform="matrix(.07 0 0 .07 84 154)"/>
  <path d="M0 0h100v100H0z" style="fill:#000" transform="matrix(.07 0 0 .07 112 154)"/>
  <path d="M0 0h100v100H0z" style="fill:#000" transform="matrix(.07 0 0 .07 140 154)"/>
  <path d="M0 0h100v100H0z" style="fill:#000" transform="matrix(.07 0 0 .07 161 154)"/>
  <path d="M0 0h100v100H0z" style="fill:#000" transform="matrix(.07 0 0 .07 217 154)"/>
  <path d="M0 0h100v100H0z" style="fill:#000" transform="matrix(.07 0 0 .07 224 154)"/>
  <path d="M0 0h100v100H0z" style="fill:#000" transform="matrix(.07 0 0 .07 231 154)"/>
  <path d="M0 0h100v100H0z" style="fill:#000" transform="matrix(.07 0 0 .07 238 154)"/>
  <path d="M0 0h100v100H0z" style="fill:#000" transform="matrix(.07 0 0 .07 14 161)"/>
  <path d="M0 0h100v100H0z" style="fill:#000" transform="matrix(.07 0 0 .07 21 161)"/>
  <path d="M0 0h100v100H0z" style="fill:#000" transform="matrix(.07 0 0 .07 28 161)"/>
  <path d="M0 0h100v100H0z" style="fill:#000" transform="matrix(.07 0 0 .07 49 161)"/>
  <path d="M0 0h100v100H0z" style="fill:#000" transform="matrix(.07 0 0 .07 77 161)"/>
  <path d="M0 0h100v100H0z" style="fill:#000" transform="matrix(.07 0 0 .07 91 161)"/>
  <path d="M0 0h100v100H0z" style="fill:#000" transform="matrix(.07 0 0 .07 98 161)"/>
  <path d="M0 0h100v100H0z" style="fill:#000" transform="matrix(.07 0 0 .07 119 161)"/>
  <path d="M0 0h100v100H0z" style="fill:#000" transform="matrix(.07 0 0 .07 133 161)"/>
  <path d="M0 0h100v100H0z" style="fill:#000" transform="matrix(.07 0 0 .07 140 161)"/>
  <path d="M0 0h100v100H0z" style="fill:#000" transform="matrix(.07 0 0 .07 161 161)"/>
  <path d="M0 0h100v100H0z" style="fill:#000" transform="matrix(.07 0 0 .07 175 161)"/>
  <path d="M0 0h100v100H0z" style="fill:#000" transform="matrix(.07 0 0 .07 189 161)"/>
  <path d="M0 0h100v100H0z" style="fill:#000" transform="matrix(.07 0 0 .07 196 161)"/>
  <path d="M0 0h100v100H0z" style="fill:#000" transform="matrix(.07 0 0 .07 217 161)"/>
  <path d="M0 0h100v100H0z" style="fill:#000" transform="matrix(.07 0 0 .07 238 161)"/>
  <path d="M0 0h100v100H0z" style="fill:#000" transform="matrix(.07 0 0 .07 28 168)"/>
  <path d="M0 0h100v100H0z" style="fill:#000" transform="matrix(.07 0 0 .07 49 168)"/>
  <path d="M0 0h100v100H0z" style="fill:#000" transform="matrix(.07 0 0 .07 56 168)"/>
  <path d="M0 0h100v100H0z" style="fill:#000" transform="matrix(.07 0 0 .07 84 168)"/>
  <path d="M0 0h100v100H0z" style="fill:#000" transform="matrix(.07 0 0 .07 91 168)"/>
  <path d="M0 0h100v100H0z" style="fill:#000" transform="matrix(.07 0 0 .07 98 168)"/>
  <path d="M0 0h100v100H0z" style="fill:#000" transform="matrix(.07 0 0 .07 126 168)"/>
  <path d="M0 0h100v100H0z" style="fill:#000" transform="matrix(.07 0 0 .07 133 168)"/>
  <path d="M0 0h100v100H0z" style="fill:#000" transform="matrix(.07 0 0 .07 161 168)"/>
  <path d="M0 0h100v100H0z" style="fill:#000" transform="matrix(.07 0 0 .07 175 168)"/>
  <path d="M0 0h100v100H0z" style="fill:#000" transform="matrix(.07 0 0 .07 182 168)"/>
  <path d="M0 0h100v100H0z" style="fill:#000" transform="matrix(.07 0 0 .07 189 168)"/>
  <path d="M0 0h100v100H0z" style="fill:#000" transform="matrix(.07 0 0 .07 196 168)"/>
  <path d="M0 0h100v100H0z" style="fill:#000" transform="matrix(.07 0 0 .07 231 168)"/>
  <path d="M0 0h100v100H0z" style="fill:#000" transform="matrix(.07 0 0 .07 238 168)"/>
  <path d="M0 0h100v100H0z" style="fill:#000" transform="matrix(.07 0 0 .07 21 175)"/>
  <path d="M0 0h100v100H0z" style="fill:#000" transform="matrix(.07 0 0 .07 35 175)"/>
  <path d="M0 0h100v100H0z" style="fill:#000" transform="matrix(.07 0 0 .07 49 175)"/>
  <path d="M0 0h100v100H0z" style="fill:#000" transform="matrix(.07 0 0 .07 70 175)"/>
  <path d="M0 0h100v100H0z" style="fill:#000" transform="matrix(.07 0 0 .07 84 175)"/>
  <path d="M0 0h100v100H0z" style="fill:#000" transform="matrix(.07 0 0 .07 98 175)"/>
  <path d="M0 0h100v100H0z" style="fill:#000" transform="matrix(.07 0 0 .07 105 175)"/>
  <path d="M0 0h100v100H0z" style="fill:#000" transform="matrix(.07 0 0 .07 112 175)"/>
  <path d="M0 0h100v100H0z" style="fill:#000" transform="matrix(.07 0 0 .07 126 175)"/>
  <path d="M0 0h100v100H0z" style="fill:#000" transform="matrix(.07 0 0 .07 140 175)"/>
  <path d="M0 0h100v100H0z" style="fill:#000" transform="matrix(.07 0 0 .07 182 175)"/>
  <path d="M0 0h100v100H0z" style="fill:#000" transform="matrix(.07 0 0 .07 196 175)"/>
  <path d="M0 0h100v100H0z" style="fill:#000" transform="matrix(.07 0 0 .07 203 175)"/>
  <path d="M0 0h100v100H0z" style="fill:#000" transform="matrix(.07 0 0 .07 210 175)"/>
  <path d="M0 0h100v100H0z" style="fill:#000" transform="matrix(.07 0 0 .07 217 175)"/>
  <path d="M0 0h100v100H0z" style="fill:#000" transform="matrix(.07 0 0 .07 231 175)"/>
  <path d="M0 0h100v100H0z" style="fill:#000" transform="matrix(.07 0 0 .07 238 175)"/>
  <path d="M0 0h100v100H0z" style="fill:#000" transform="matrix(.07 0 0 .07 14 182)"/>
  <path d="M0 0h100v100H0z" style="fill:#000" transform="matrix(.07 0 0 .07 42 182)"/>
  <path d="M0 0h100v100H0z" style="fill:#000" transform="matrix(.07 0 0 .07 56 182)"/>
  <path d="M0 0h100v100H0z" style="fill:#000" transform="matrix(.07 0 0 .07 63 182)"/>
  <path d="M0 0h100v100H0z" style="fill:#000" transform="matrix(.07 0 0 .07 91 182)"/>
  <path d="M0 0h100v100H0z" style="fill:#000" transform="matrix(.07 0 0 .07 105 182)"/>
  <path d="M0 0h100v100H0z" style="fill:#000" transform="matrix(.07 0 0 .07 119 182)"/>
  <path d="M0 0h100v100H0z" style="fill:#000" transform="matrix(.07 0 0 .07 126 182)"/>
  <path d="M0 0h100v100H0z" style="fill:#000" transform="matrix(.07 0 0 .07 133 182)"/>
  <path d="M0 0h100v100H0z" style="fill:#000" transform="matrix(.07 0 0 .07 147 182)"/>
  <path d="M0 0h100v100H0z" style="fill:#000" transform="matrix(.07 0 0 .07 168 182)"/>
  <path d="M0 0h100v100H0z" style="fill:#000" transform="matrix(.07 0 0 .07 175 182)"/>
  <path d="M0 0h100v100H0z" style="fill:#000" transform="matrix(.07 0 0 .07 182 182)"/>
  <path d="M0 0h100v100H0z" style="fill:#000" transform="matrix(.07 0 0 .07 189 182)"/>
  <path d="M0 0h100v100H0z" style="fill:#000" transform="matrix(.07 0 0 .07 196 182)"/>
  <path d="M0 0h100v100H0z" style="fill:#000" transform="matrix(.07 0 0 .07 203 182)"/>
  <path d="M0 0h100v100H0z" style="fill:#000" transform="matrix(.07 0 0 .07 210 182)"/>
  <path d="M0 0h100v100H0z" style="fill:#000" transform="matrix(.07 0 0 .07 70 189)"/>
  <path d="M0 0h100v100H0z" style="fill:#000" transform="matrix(.07 0 0 .07 91 189)"/>
  <path d="M0 0h100v100H0z" style="fill:#000" transform="matrix(.07 0 0 .07 98 189)"/>
  <path d="M0 0h100v100H0z" style="fill:#000" transform="matrix(.07 0 0 .07 112 189)"/>
  <path d="M0 0h100v100H0z" style="fill:#000" transform="matrix(.07 0 0 .07 119 189)"/>
  <path d="M0 0h100v100H0z" style="fill:#000" transform="matrix(.07 0 0 .07 126 189)"/>
  <path d="M0 0h100v100H0z" style="fill:#000" transform="matrix(.07 0 0 .07 133 189)"/>
  <path d="M0 0h100v100H0z" style="fill:#000" transform="matrix(.07 0 0 .07 147 189)"/>
  <path d="M0 0h100v100H0z" style="fill:#000" transform="matrix(.07 0 0 .07 154 189)"/>
  <path d="M0 0h100v100H0z" style="fill:#000" transform="matrix(.07 0 0 .07 161 189)"/>
  <path d="M0 0h100v100H0z" style="fill:#000" transform="matrix(.07 0 0 .07 182 189)"/>
  <path d="M0 0h100v100H0z" style="fill:#000" transform="matrix(.07 0 0 .07 210 189)"/>
  <path d="M0 0h100v100H0z" style="fill:#000" transform="matrix(.07 0 0 .07 217 189)"/>
  <path d="M0 0h100v100H0z" style="fill:#000" transform="matrix(.07 0 0 .07 70 196)"/>
  <path d="M0 0h100v100H0z" style="fill:#000" transform="matrix(.07 0 0 .07 77 196)"/>
  <path d="M0 0h100v100H0z" style="fill:#000" transform="matrix(.07 0 0 .07 84 196)"/>
  <path d="M0 0h100v100H0z" style="fill:#000" transform="matrix(.07 0 0 .07 91 196)"/>
  <path d="M0 0h100v100H0z" style="fill:#000" transform="matrix(.07 0 0 .07 105 196)"/>
  <path d="M0 0h100v100H0z" style="fill:#000" transform="matrix(.07 0 0 .07 112 196)"/>
  <path d="M0 0h100v100H0z" style="fill:#000" transform="matrix(.07 0 0 .07 147 196)"/>
  <path d="M0 0h100v100H0z" style="fill:#000" transform="matrix(.07 0 0 .07 154 196)"/>
  <path d="M0 0h100v100H0z" style="fill:#000" transform="matrix(.07 0 0 .07 161 196)"/>
  <path d="M0 0h100v100H0z" style="fill:#000" transform="matrix(.07 0 0 .07 175 196)"/>
  <path d="M0 0h100v100H0z" style="fill:#000" transform="matrix(.07 0 0 .07 182 196)"/>
  <path d="M0 0h100v100H0z" style="fill:#000" transform="matrix(.07 0 0 .07 196 196)"/>
  <path d="M0 0h100v100H0z" style="fill:#000" transform="matrix(.07 0 0 .07 210 196)"/>
  <path d="M0 0h100v100H0z" style="fill:#000" transform="matrix(.07 0 0 .07 70 203)"/>
  <path d="M0 0h100v100H0z" style="fill:#000" transform="matrix(.07 0 0 .07 77 203)"/>
  <path d="M0 0h100v100H0z" style="fill:#000" transform="matrix(.07 0 0 .07 84 203)"/>
  <path d="M0 0h100v100H0z" style="fill:#000" transform="matrix(.07 0 0 .07 91 203)"/>
  <path d="M0 0h100v100H0z" style="fill:#000" transform="matrix(.07 0 0 .07 98 203)"/>
  <path d="M0 0h100v100H0z" style="fill:#000" transform="matrix(.07 0 0 .07 105 203)"/>
  <path d="M0 0h100v100H0z" style="fill:#000" transform="matrix(.07 0 0 .07 119 203)"/>
  <path d="M0 0h100v100H0z" style="fill:#000" transform="matrix(.07 0 0 .07 154 203)"/>
  <path d="M0 0h100v100H0z" style="fill:#000" transform="matrix(.07 0 0 .07 161 203)"/>
  <path d="M0 0h100v100H0z" style="fill:#000" transform="matrix(.07 0 0 .07 168 203)"/>
  <path d="M0 0h100v100H0z" style="fill:#000" transform="matrix(.07 0 0 .07 175 203)"/>
  <path d="M0 0h100v100H0z" style="fill:#000" transform="matrix(.07 0 0 .07 182 203)"/>
  <path d="M0 0h100v100H0z" style="fill:#000" transform="matrix(.07 0 0 .07 210 203)"/>
  <path d="M0 0h100v100H0z" style="fill:#000" transform="matrix(.07 0 0 .07 217 203)"/>
  <path d="M0 0h100v100H0z" style="fill:#000" transform="matrix(.07 0 0 .07 224 203)"/>
  <path d="M0 0h100v100H0z" style="fill:#000" transform="matrix(.07 0 0 .07 98 210)"/>
  <path d="M0 0h100v100H0z" style="fill:#000" transform="matrix(.07 0 0 .07 105 210)"/>
  <path d="M0 0h100v100H0z" style="fill:#000" transform="matrix(.07 0 0 .07 112 210)"/>
  <path d="M0 0h100v100H0z" style="fill:#000" transform="matrix(.07 0 0 .07 133 210)"/>
  <path d="M0 0h100v100H0z" style="fill:#000" transform="matrix(.07 0 0 .07 147 210)"/>
  <path d="M0 0h100v100H0z" style="fill:#000" transform="matrix(.07 0 0 .07 154 210)"/>
  <path d="M0 0h100v100H0z" style="fill:#000" transform="matrix(.07 0 0 .07 161 210)"/>
  <path d="M0 0h100v100H0z" style="fill:#000" transform="matrix(.07 0 0 .07 168 210)"/>
  <path d="M0 0h100v100H0z" style="fill:#000" transform="matrix(.07 0 0 .07 175 210)"/>
  <path d="M0 0h100v100H0z" style="fill:#000" transform="matrix(.07 0 0 .07 182 210)"/>
  <path d="M0 0h100v100H0z" style="fill:#000" transform="matrix(.07 0 0 .07 189 210)"/>
  <path d="M0 0h100v100H0z" style="fill:#000" transform="matrix(.07 0 0 .07 196 210)"/>
  <path d="M0 0h100v100H0z" style="fill:#000" transform="matrix(.07 0 0 .07 203 210)"/>
  <path d="M0 0h100v100H0z" style="fill:#000" transform="matrix(.07 0 0 .07 210 210)"/>
  <path d="M0 0h100v100H0z" style="fill:#000" transform="matrix(.07 0 0 .07 224 210)"/>
  <path d="M0 0h100v100H0z" style="fill:#000" transform="matrix(.07 0 0 .07 231 210)"/>
  <path d="M0 0h100v100H0z" style="fill:#000" transform="matrix(.07 0 0 .07 238 210)"/>
  <path d="M0 0h100v100H0z" style="fill:#000" transform="matrix(.07 0 0 .07 70 217)"/>
  <path d="M0 0h100v100H0z" style="fill:#000" transform="matrix(.07 0 0 .07 91 217)"/>
  <path d="M0 0h100v100H0z" style="fill:#000" transform="matrix(.07 0 0 .07 98 217)"/>
  <path d="M0 0h100v100H0z" style="fill:#000" transform="matrix(.07 0 0 .07 133 217)"/>
  <path d="M0 0h100v100H0z" style="fill:#000" transform="matrix(.07 0 0 .07 140 217)"/>
  <path d="M0 0h100v100H0z" style="fill:#000" transform="matrix(.07 0 0 .07 154 217)"/>
  <path d="M0 0h100v100H0z" style="fill:#000" transform="matrix(.07 0 0 .07 161 217)"/>
  <path d="M0 0h100v100H0z" style="fill:#000" transform="matrix(.07 0 0 .07 175 217)"/>
  <path d="M0 0h100v100H0z" style="fill:#000" transform="matrix(.07 0 0 .07 203 217)"/>
  <path d="M0 0h100v100H0z" style="fill:#000" transform="matrix(.07 0 0 .07 238 217)"/>
  <path d="M0 0h100v100H0z" style="fill:#000" transform="matrix(.07 0 0 .07 70 224)"/>
  <path d="M0 0h100v100H0z" style="fill:#000" transform="matrix(.07 0 0 .07 91 224)"/>
  <path d="M0 0h100v100H0z" style="fill:#000" transform="matrix(.07 0 0 .07 98 224)"/>
  <path d="M0 0h100v100H0z" style="fill:#000" transform="matrix(.07 0 0 .07 168 224)"/>
  <path d="M0 0h100v100H0z" style="fill:#000" transform="matrix(.07 0 0 .07 196 224)"/>
  <path d="M0 0h100v100H0z" style="fill:#000" transform="matrix(.07 0 0 .07 203 224)"/>
  <path d="M0 0h100v100H0z" style="fill:#000" transform="matrix(.07 0 0 .07 217 224)"/>
  <path d="M0 0h100v100H0z" style="fill:#000" transform="matrix(.07 0 0 .07 224 224)"/>
  <path d="M0 0h100v100H0z" style="fill:#000" transform="matrix(.07 0 0 .07 77 231)"/>
  <path d="M0 0h100v100H0z" style="fill:#000" transform="matrix(.07 0 0 .07 91 231)"/>
  <path d="M0 0h100v100H0z" style="fill:#000" transform="matrix(.07 0 0 .07 119 231)"/>
  <path d="M0 0h100v100H0z" style="fill:#000" transform="matrix(.07 0 0 .07 126 231)"/>
  <path d="M0 0h100v100H0z" style="fill:#000" transform="matrix(.07 0 0 .07 133 231)"/>
  <path d="M0 0h100v100H0z" style="fill:#000" transform="matrix(.07 0 0 .07 147 231)"/>
  <path d="M0 0h100v100H0z" style="fill:#000" transform="matrix(.07 0 0 .07 154 231)"/>
  <path d="M0 0h100v100H0z" style="fill:#000" transform="matrix(.07 0 0 .07 168 231)"/>
  <path d="M0 0h100v100H0z" style="fill:#000" transform="matrix(.07 0 0 .07 175 231)"/>
  <path d="M0 0h100v100H0z" style="fill:#000" transform="matrix(.07 0 0 .07 182 231)"/>
  <path d="M0 0h100v100H0z" style="fill:#000" transform="matrix(.07 0 0 .07 203 231)"/>
  <path d="M0 0h100v100H0z" style="fill:#000" transform="matrix(.07 0 0 .07 210 231)"/>
  <path d="M0 0h100v100H0z" style="fill:#000" transform="matrix(.07 0 0 .07 238 231)"/>
  <path d="M0 0h100v100H0z" style="fill:#000" transform="matrix(.07 0 0 .07 70 238)"/>
  <path d="M0 0h100v100H0z" style="fill:#000" transform="matrix(.07 0 0 .07 84 238)"/>
  <path d="M0 0h100v100H0z" style="fill:#000" transform="matrix(.07 0 0 .07 112 238)"/>
  <path d="M0 0h100v100H0z" style="fill:#000" transform="matrix(.07 0 0 .07 119 238)"/>
  <path d="M0 0h100v100H0z" style="fill:#000" transform="matrix(.07 0 0 .07 126 238)"/>
  <path d="M0 0h100v100H0z" style="fill:#000" transform="matrix(.07 0 0 .07 133 238)"/>
  <path d="M0 0h100v100H0z" style="fill:#000" transform="matrix(.07 0 0 .07 140 238)"/>
  <path d="M0 0h100v100H0z" style="fill:#000" transform="matrix(.07 0 0 .07 147 238)"/>
  <path d="M0 0h100v100H0z" style="fill:#000" transform="matrix(.07 0 0 .07 161 238)"/>
  <path d="M0 0h100v100H0z" style="fill:#000" transform="matrix(.07 0 0 .07 210 238)"/>
  <path d="M0 0h100v100H0z" style="fill:#000" transform="matrix(.07 0 0 .07 217 238)"/>
  <path d="M0 0h100v100H0z" style="fill:#000" transform="matrix(.07 0 0 .07 224 238)"/>
  <g style="fill:#000">
    <path d="M15 15h70v70H15z" style="fill:none" transform="matrix(.49 0 0 .49 14 14)"/>
    <path d="M56 14H14v49h49V14h-7zm0 42H21V21h35v35z"/>
  </g>
  <g style="fill:#000">
    <path d="M15 15h70v70H15z" style="fill:none" transform="matrix(.49 0 0 .49 196 14)"/>
    <path d="M238 14h-42v49h49V14h-7zm0 42h-35V21h35v35z"/>
  </g>
  <g style="fill:#000">
    <path d="M15 15h70v70H15z" style="fill:none" transform="matrix(.49 0 0 .49 14 196)"/>
    <path d="M56 196H14v49h49v-49h-7zm0 42H21v-35h35v35z"/>
  </g>
  <path d="M0 0h100v100H0z" style="fill:#000" transform="matrix(.21 0 0 .21 28 28)"/>
  <path d="M0 0h100v100H0z" style="fill:#000" transform="matrix(.21 0 0 .21 210 28)"/>
  <path d="M0 0h100v100H0z" style="fill:#000" transform="matrix(.21 0 0 .21 28 210)"/>
</svg>
